<svg width="565" height="469" viewBox="0 0 565 469" fill="none" xmlns="http://www.w3.org/2000/svg">
<g clip-path="url(#clip0_55_209)">
<path d="M170.478 478.154C170.478 483.569 137.137 488 95.9113 488C54.686 488 21.3445 483.569 21.3445 478.154C21.3445 472.739 54.686 468.308 95.9113 468.308C137.137 468.308 170.478 472.575 170.478 478.154Z" fill="#AEE4ED"/>
<path d="M432.612 473.231C474.248 473.231 508 469.925 508 465.846C508 461.768 474.248 458.462 432.612 458.462C390.976 458.462 357.224 461.768 357.224 465.846C357.224 469.925 390.976 473.231 432.612 473.231Z" fill="#AEE4ED"/>
<path d="M432.448 437.129H14.9389C-1.81396 437.129 -15.4462 423.508 -15.4462 406.77V84.3121C-15.4462 67.5738 -1.81396 53.9534 14.9389 53.9534H432.448C449.201 53.9534 462.833 67.5738 462.833 84.3121V406.77C462.833 423.508 449.201 437.129 432.448 437.129Z" fill="#30C5CC"/>
<path d="M18.7166 423.508C7.87645 423.508 -0.992737 414.647 -0.992737 403.816V87.43C-0.992737 76.5994 7.87645 67.7379 18.7166 67.7379H428.67C439.51 67.7379 448.379 76.5994 448.379 87.43V403.816C448.379 414.647 439.51 423.508 428.67 423.508H18.7166V423.508Z" fill="#0B9B9B"/>
<path d="M423.907 413.17H23.4796C16.4171 413.17 10.6686 407.427 10.6686 400.37V90.712C10.6686 83.6557 16.4171 77.9122 23.4796 77.9122H423.907C430.969 77.9122 436.718 83.6557 436.718 90.712V400.534C436.554 407.591 430.969 413.17 423.907 413.17Z" fill="#C6F4FF"/>
<path d="M-44.189 412.514C-34.6628 428.267 -17.2529 438.934 2.62063 438.934H444.93C464.64 438.934 482.049 428.267 491.74 412.514H-44.189Z" fill="#0B9B9B"/>
<path d="M-38.4404 420.226H485.827C487.962 417.765 489.933 415.303 491.576 412.514H-44.189C-42.5465 415.303 -40.5756 417.765 -38.4404 420.226Z" fill="#30C5CC"/>
<path d="M163.251 277.295H44.1744V343.92H163.251V277.295Z" fill="#DB5A28"/>
<path d="M205.626 106.794H160.788V113.03H205.626V106.794Z" fill="#30C5CC"/>
<path d="M130.074 106.794H102.81V113.03H130.074V106.794Z" fill="#30C5CC"/>
<path d="M94.5974 106.794H40.3968V113.03H94.5974V106.794Z" fill="#30C5CC"/>
<path d="M150.605 106.794H138.779V113.03H150.605V106.794Z" fill="#30C5CC"/>
<path d="M244.224 106.794H216.959V113.03H244.224V106.794Z" fill="#30C5CC"/>
<path d="M177.541 124.845H160.788V131.081H177.541V124.845Z" fill="#30C5CC"/>
<path d="M201.028 124.845H184.275V131.081H201.028V124.845Z" fill="#30C5CC"/>
<path d="M102.153 124.845H74.8881V131.081H102.153V124.845Z" fill="#30C5CC"/>
<path d="M67.1686 124.845H40.3968V131.081H67.1686V124.845Z" fill="#30C5CC"/>
<path d="M154.875 124.845H109.872V131.081H154.875V124.845Z" fill="#30C5CC"/>
<path d="M119.398 466.831C116.606 457.806 111.022 419.406 109.872 404.309C109.544 401.191 74.5596 387.406 74.5596 387.406C54.0291 386.914 43.5175 394.955 43.5175 394.955L92.7907 411.529C92.7907 433.683 111.679 467.159 111.679 467.159C111.679 467.159 119.398 466.831 119.398 466.831Z" fill="#2F2F8E"/>
<path d="M77.1875 415.96L62.5698 466.831L70.9463 468.636C74.5596 456.657 95.5829 415.467 96.2399 410.544C96.4041 408.411 96.4041 406.77 95.5829 406.278C94.7617 405.621 71.2748 391.509 64.3765 390.032C55.1788 387.899 41.5466 384.616 41.5466 384.616C41.5466 384.616 33.8271 392.657 35.3053 405.786C36.6192 418.749 77.1875 415.96 77.1875 415.96Z" fill="#4C49A2"/>
<path d="M57.314 326.361C57.314 326.361 41.2181 327.838 40.5611 332.104C39.9041 336.535 48.2806 364.104 48.2806 364.104L40.0684 385.765C40.0684 385.765 63.2268 391.509 74.3954 387.242C75.5451 387.734 77.3518 364.432 77.3518 364.432L81.2936 352.945L86.3852 370.176L98.0465 386.586L105.766 380.35L97.2253 365.417C97.2253 365.417 84.0858 335.386 80.6367 331.94C74.0669 325.704 57.314 326.361 57.314 326.361Z" fill="white"/>
<path d="M70.125 327.509L68.8111 311.099H56.8212V326.525C55.343 326.689 58.4637 338.997 68.1541 338.997C68.1541 338.997 72.5887 337.356 70.125 327.509Z" fill="#E67750"/>
<path d="M45.6527 355.407C47.1309 360.33 48.1163 364.104 48.1163 364.104L39.9041 385.765C39.9041 385.765 57.4782 390.032 69.4681 388.391C68.3184 387.57 54.1934 378.052 53.5364 373.95C52.2224 365.253 45.6527 355.407 45.6527 355.407Z" fill="#EFEFEF"/>
<path d="M80.8009 294.525C79.8154 290.259 73.2457 289.11 62.734 290.259C55.6715 291.079 54.0291 297.643 53.8648 302.402C53.7006 302.402 53.7006 302.402 53.5363 302.402C51.0727 303.223 49.4302 305.52 49.4302 308.146C49.4302 309.458 49.923 310.607 50.9084 311.592C51.8939 313.069 53.3721 314.053 55.1788 314.381C55.6715 314.381 56.1642 314.381 56.657 314.381C59.6134 320.453 65.0334 328.166 72.5887 327.181C83.7573 319.469 80.8009 294.525 80.8009 294.525Z" fill="#FD9E71"/>
<path d="M56.9855 305.52C56.9855 305.52 54.686 299.941 59.9418 296.166C65.1977 292.228 65.5262 297.971 70.9462 298.792C76.3663 299.612 81.7863 299.12 81.2936 302.73C84.5785 294.525 79.8154 289.93 74.3953 287.305C68.9753 284.679 60.5988 283.695 54.8503 288.453C49.1017 293.377 49.7587 305.028 49.7587 305.028C53.5363 303.058 54.5218 304.535 56.9855 305.52Z" fill="#201251"/>
<path d="M54.6861 288.453C54.6861 288.453 49.923 275.49 40.7253 278.772C31.5276 282.054 35.6337 300.433 34.6483 308.474C33.6628 316.515 27.9143 316.843 25.7791 313.233C22.0015 320.453 36.9477 327.838 41.875 320.945C46.8024 313.889 44.0102 296.33 47.1308 294.525C50.2515 292.72 53.3721 295.018 53.3721 295.018L54.6861 288.453Z" fill="#201251"/>
<path d="M41.0538 330.791C37.2762 333.089 30.0494 359.509 30.0494 363.94C30.0494 368.371 64.2122 390.032 64.2122 390.032C64.2122 390.032 65.8547 384.617 69.4681 383.632C68.8111 383.304 44.0102 359.673 44.0102 359.673L50.58 341.13C50.4157 340.966 50.4157 325.376 41.0538 330.791Z" fill="white"/>
<path d="M61.5843 393.314L96.4041 392.165L118.906 400.534L80.6366 402.668L61.5843 393.314Z" fill="#30C5CC"/>
<path d="M80.6366 402.668L61.5843 395.283V393.314L82.2791 400.698L80.6366 402.668Z" fill="#0B9B9B"/>
<path d="M80.6367 402.668L92.1338 371.324L130.238 373.294L118.906 401.355L80.6367 402.668Z" fill="#0B9B9B"/>
<path d="M103.959 385.109C102.81 387.406 103.138 389.868 104.781 390.524C106.259 391.345 108.558 390.032 109.708 387.898C110.858 385.601 110.529 383.14 108.887 382.483C107.408 381.663 105.109 382.811 103.959 385.109Z" fill="#30C5CC"/>
<path d="M69.3038 383.468C69.3038 383.468 83.1003 394.463 81.6221 395.119C80.1439 395.775 73.9026 395.775 70.6177 393.97C67.3329 392.165 63.8837 389.868 63.8837 389.868C63.8837 389.868 65.3619 383.796 69.3038 383.468Z" fill="#FD9E71"/>
<path d="M71.2747 466.011C73.7384 468.472 82.1149 472.246 86.221 473.231C90.6556 474.38 89.8343 477.99 86.7137 477.99C80.3082 477.99 66.3474 477.169 59.2849 477.169C58.1352 473.887 60.1061 469.457 62.2413 466.503C62.8983 465.846 70.782 465.682 71.2747 466.011Z" fill="#201251"/>
<path d="M121.041 466.011C123.504 468.472 131.881 472.246 135.987 473.231C140.422 474.38 139.6 477.99 136.48 477.99C130.074 477.99 116.113 477.169 109.051 477.169C107.901 473.887 109.872 469.457 112.007 466.503C112.664 465.846 120.712 465.682 121.041 466.011Z" fill="#201251"/>
<path d="M78.173 251.367H44.8314V260.556H78.173V251.367Z" fill="#31D0A8"/>
<path d="M163.251 251.367H129.91V260.556H163.251V251.367Z" fill="#31D0A8"/>
<path d="M120.712 251.367H87.3707V260.556H120.712V251.367Z" fill="#31D0A8"/>
<path d="M262.777 74.102L157.019 100.007L166.678 139.373L272.436 113.468L262.777 74.102Z" fill="#FEBA40"/>
<path d="M241.891 84.8683L163.888 103.975L165.218 109.393L243.22 90.287L241.891 84.8683Z" fill="#FEDB9B"/>
<path d="M231.424 97.7691L166.343 113.711L167.672 119.129L232.754 103.188L231.424 97.7691Z" fill="#FEDB9B"/>
<path d="M199.896 116.706L168.95 124.286L170.279 129.705L201.225 122.125L199.896 116.706Z" fill="#FEDB9B"/>
<path d="M251.352 93.0191L234.763 97.0826L236.092 102.501L252.682 98.4378L251.352 93.0191Z" fill="white"/>
<path d="M162.43 144.373H43.6817V241.192H162.43V144.373Z" fill="white"/>
<path d="M405.019 200.167H171.299V243.818H405.019V200.167Z" fill="#4CB0DD"/>
<path d="M398.121 206.567H334.887V237.582H398.121V206.567Z" fill="white"/>
<path d="M326.017 208.372H179.84V214.28H326.017V208.372Z" fill="#75D5EF"/>
<path d="M326.017 219.039H179.84V224.946H326.017V219.039Z" fill="#75D5EF"/>
<path d="M278.222 229.705H179.84V235.613H278.222V229.705Z" fill="#75D5EF"/>
<path d="M395.985 275.161H171.464V380.514H395.985V275.161Z" fill="white"/>
<path d="M395.985 275.161H171.464V292.556H395.985V275.161Z" fill="#FDBE44"/>
<path d="M306.637 317.335H176.884V326.197H306.637V317.335Z" fill="#98DBE5"/>
<path d="M293.169 333.253H176.884V342.114H293.169V333.253Z" fill="#98DBE5"/>
<path d="M255.392 349.007H176.884V357.868H255.392V349.007Z" fill="#98DBE5"/>
<path d="M223.693 302.894H176.884V311.756H223.693V302.894Z" fill="#98DBE5"/>
<path d="M386.952 302.402H319.119V370.176H386.952V302.402Z" fill="#86D2E8"/>
<path d="M360.016 335.879C361.001 334.402 361.658 332.597 361.658 330.791V325.54C361.658 320.781 357.717 316.843 352.954 316.843C348.19 316.843 344.249 320.781 344.249 325.54V330.791C344.249 332.761 344.906 334.73 346.055 336.207C338.172 338.996 332.423 346.545 332.423 355.407H375.126C375.455 355.242 373.813 339.817 360.016 335.879Z" fill="#F6FFFA"/>
<path d="M182.961 288.782C185.41 288.782 187.395 286.798 187.395 284.351C187.395 281.904 185.41 279.92 182.961 279.92C180.512 279.92 178.526 281.904 178.526 284.351C178.526 286.798 180.512 288.782 182.961 288.782Z" fill="#DB5A28"/>
<path d="M197.086 288.782C199.535 288.782 201.52 286.798 201.52 284.351C201.52 281.904 199.535 279.92 197.086 279.92C194.637 279.92 192.651 281.904 192.651 284.351C192.651 286.798 194.637 288.782 197.086 288.782Z" fill="#FFE780"/>
<path d="M213.51 288.782C215.959 288.782 217.945 286.798 217.945 284.351C217.945 281.904 215.959 279.92 213.51 279.92C211.061 279.92 209.076 281.904 209.076 284.351C209.076 286.798 211.061 288.782 213.51 288.782Z" fill="#1FB288"/>
<path d="M398.285 102.691H319.612V181.296H398.285V102.691Z" fill="#DB5A28"/>
<path d="M429.656 451.734C429.656 451.734 430.312 453.867 423.907 456.657C417.501 459.611 410.932 458.462 409.289 460.923C407.647 463.385 407.318 465.682 407.318 465.682H443.452C443.452 465.682 443.124 455.672 439.017 451.241C439.51 452.226 429.656 451.734 429.656 451.734Z" fill="#9E472D"/>
<path d="M468.91 451.734C468.91 451.734 469.567 453.703 463.49 456.493C457.413 459.282 451.007 458.298 449.365 460.595C447.722 462.893 447.394 465.19 447.394 465.19H482.049C482.049 465.19 481.721 455.672 477.779 451.406C478.436 452.226 468.91 451.734 468.91 451.734Z" fill="#9E472D"/>
<path d="M422.593 262.033L396.314 266.628L377.919 227.244L406.169 224.946L422.593 262.033Z" fill="white"/>
<path d="M440.66 188.024C440.66 188.024 437.211 194.916 437.211 201.316C437.211 205.747 437.703 212.147 438.032 215.593C438.196 216.906 439.346 217.726 440.66 217.234L445.751 215.593L445.423 223.141L459.876 222.813L462.997 192.619C463.161 192.783 451.007 179.491 440.66 188.024Z" fill="#FD9E71"/>
<path d="M441.81 203.942C441.81 203.942 442.631 197.87 447.065 199.183C451.664 200.495 446.408 206.403 446.408 206.403L450.679 214.116C453.799 215.265 457.413 215.265 460.698 213.788C460.698 213.788 465.461 199.183 465.461 194.588C465.461 189.993 461.19 186.875 461.19 186.875C461.19 186.875 449.858 181.296 443.945 181.624C437.868 181.952 437.375 188.024 437.375 188.024C437.375 188.024 435.076 192.619 437.375 194.588C439.839 196.721 441.81 203.942 441.81 203.942Z" fill="#201251"/>
<path d="M460.698 218.875L460.041 222.977H445.094C445.094 222.977 448.051 218.382 460.698 218.875Z" fill="#6AA5CC"/>
<path d="M396.971 255.962C396.971 255.962 397.956 252.68 393.85 250.71C394.015 249.89 393.029 246.116 392.044 245.295C391.222 244.475 390.565 249.398 390.565 249.398C390.565 249.398 386.459 242.013 385.31 243.982C384.324 245.787 394.672 260.228 394.836 260.885C395.329 261.377 396.971 255.962 396.971 255.962Z" fill="#FD9E71"/>
<path d="M435.733 303.387L425.714 387.734L427.685 453.211L440.331 452.39C440.331 452.39 443.945 417.929 444.109 409.396C444.438 400.698 441.81 387.57 441.81 387.57L454.456 335.386L456.592 335.715L457.249 387.078L468.746 452.39L479.257 452.882C479.257 452.882 479.586 419.242 478.6 410.873C477.779 402.504 473.18 385.765 473.18 385.765L477.779 332.597C477.779 332.597 482.378 318.648 474.166 302.894C473.18 302.894 435.733 303.387 435.733 303.387Z" fill="#201251"/>
<path d="M445.094 222.977C445.094 222.977 427.192 228.721 423.907 232.003C420.622 235.285 411.26 268.925 411.26 268.925L397.135 254.813L392.701 264.987C392.701 264.987 409.289 289.602 414.381 290.259C419.637 291.079 431.298 259.244 431.298 259.244C431.298 259.244 432.283 276.638 434.419 285.336C436.718 295.346 435.568 303.387 435.568 303.387C451.5 306.34 465.132 305.684 474.166 302.73L478.6 269.254C478.6 269.254 484.677 269.91 486.648 267.777C488.619 265.643 479.75 231.018 477.779 228.228C475.808 225.603 459.876 222.813 459.876 222.813L445.094 222.977Z" fill="#96C4EA"/>
<path d="M462.504 246.115C462.34 245.459 461.355 245.623 461.355 246.28C461.847 260.72 461.355 274.833 459.055 289.11C458.891 290.094 460.369 290.587 460.533 289.438C463.654 275.325 464.475 260.392 462.504 246.115Z" fill="#6AA5CC"/>
<path d="M478.929 256.782C478.765 256.29 478.108 256.454 478.108 256.946C477.943 265.315 476.958 273.356 475.315 281.725C473.837 289.11 472.523 296.494 473.016 303.879C473.016 304.864 474.658 305.028 474.658 303.879C474.33 295.182 476.137 286.813 477.615 278.279C478.929 271.223 480.243 263.838 478.929 256.782Z" fill="#6AA5CC"/>
<path d="M433.105 256.454C428.342 259.572 426.535 265.479 424.728 270.566C422.265 277.459 419.801 284.187 414.381 289.274C413.56 290.094 414.709 291.243 415.531 290.423C425.549 281.397 425.057 266.792 433.597 256.946C433.762 256.782 433.433 256.29 433.105 256.454Z" fill="#6AA5CC"/>
<path d="M474.494 300.269C474.494 300.269 450.35 303.387 435.733 298.792C436.061 298.792 435.733 303.387 435.733 303.387C435.733 303.387 454.292 310.443 475.644 304.864C475.48 304.864 474.494 300.269 474.494 300.269Z" fill="#9E472D"/>
<path d="M224.186 398.565C224.186 398.565 222.215 402.996 218.766 403.652C215.317 404.309 206.283 406.442 204.805 407.591C203.327 408.903 203.327 412.185 203.327 412.185H232.07C232.07 412.185 232.07 403.488 230.263 398.893C231.084 398.893 224.186 398.565 224.186 398.565Z" fill="#1A133A"/>
<path d="M279.865 398.565C279.865 398.565 277.894 402.996 274.445 403.652C270.996 404.309 261.962 406.442 260.484 407.591C259.006 408.903 259.006 412.185 259.006 412.185H287.913C287.913 412.185 287.913 403.488 286.106 398.893C286.763 398.893 279.865 398.565 279.865 398.565Z" fill="#1A133A"/>
<path d="M276.251 114.835C276.251 114.835 268.204 112.702 267.711 114.014C267.218 115.327 280.193 119.101 280.193 119.101L291.855 151.429L287.42 161.768L295.468 170.465C295.468 170.465 304.173 158.65 304.994 155.204C305.651 151.758 284.299 116.968 284.299 116.968C284.299 116.968 280.029 103.512 279.372 102.855C278.715 102.199 270.996 102.691 269.353 102.691C267.547 102.691 274.445 109.584 274.445 109.584L276.251 114.835Z" fill="#E79673"/>
<path d="M245.045 138.794C245.045 138.794 241.267 144.209 240.446 149.952C239.625 155.696 240.775 161.111 240.775 161.111L247.837 160.947V167.511H261.798C261.798 167.511 262.126 162.588 262.619 159.798C263.112 157.009 267.054 151.922 267.054 151.922L260.813 134.199L251.779 133.378L245.045 138.794Z" fill="#E79673"/>
<path d="M248.494 147.163C248.494 147.163 250.958 141.419 253.914 143.552C256.871 145.686 253.093 150.445 253.093 150.445C253.093 150.445 255.064 158.322 258.349 159.47C261.634 160.619 261.634 160.619 261.634 160.619C261.634 160.619 270.174 152.742 271.488 150.445C272.802 148.311 269.353 135.676 266.89 133.05C264.426 130.26 253.75 130.589 252.929 129.276C252.108 127.963 249.315 125.501 246.687 126.486C244.06 127.471 244.552 136.66 244.552 136.66C244.552 136.66 248.001 139.614 248.166 141.583C248.33 143.717 246.852 146.506 246.852 146.506L248.494 147.163Z" fill="#201251"/>
<path d="M235.355 167.839C235.355 167.839 249.315 165.87 257.363 165.542C265.411 165.378 278.058 169.48 278.058 169.48L287.256 159.634L299.081 170.793C299.081 170.793 289.062 185.562 285.778 189.008C282.493 192.454 280.193 208.7 279.372 213.623C278.715 218.546 276.744 247.264 276.744 247.264C276.744 247.264 268.203 257.438 233.055 246.28C232.727 245.951 234.533 225.111 234.369 220.023C234.205 214.936 229.606 197.706 228.785 193.439C227.799 189.337 213.346 180.803 213.346 180.803C213.346 180.803 211.539 170.629 218.273 165.706C219.259 166.527 235.355 167.839 235.355 167.839Z" fill="#201251"/>
<path d="M202.834 126.158C202.834 126.158 197.579 131.081 197.25 133.05C196.922 135.019 204.477 157.829 204.477 157.829L218.438 166.034L213.51 181.132C213.51 181.132 198.4 170.629 196.1 167.511C193.965 164.393 190.023 133.542 190.023 133.542C190.023 133.542 185.096 127.307 184.767 125.666C184.439 124.025 183.289 118.609 184.11 117.625C184.932 116.64 190.516 110.732 191.337 112.537C192.158 114.343 195.115 126.814 195.115 126.814C195.115 126.814 201.52 123.86 202.834 126.158Z" fill="#E79673"/>
<path d="M233.219 246.28L225.336 320.781L221.23 399.878L234.862 400.37C234.862 400.37 243.403 347.858 243.403 339.817C243.567 331.776 243.238 322.258 243.238 322.258L251.943 282.382H256.871L267.054 334.238L277.401 398.565L288.406 399.057C288.406 399.057 290.048 359.017 288.406 350.812C286.763 342.607 284.299 334.73 284.299 334.73L279.372 280.905C279.372 280.905 283.807 261.869 276.908 246.772C275.594 244.474 233.219 246.28 233.219 246.28Z" fill="#4C49A2"/>
<path d="M149.783 161.439H140.914V152.578H135.33V161.439H126.461V167.019H135.33V175.88H140.914V167.019H149.783V161.439Z" fill="#FDBE44"/>
<path d="M67.1686 229.87C59.4492 229.87 53.2079 223.634 53.2079 216.085C53.2079 208.372 59.4492 202.301 67.1686 202.301C74.8881 202.301 80.9652 208.536 80.9652 216.085C81.1294 223.634 74.8881 229.87 67.1686 229.87ZM67.1686 209.357C63.5553 209.357 60.5989 212.311 60.5989 215.921C60.5989 219.531 63.5553 222.485 67.1686 222.485C70.782 222.485 73.7384 219.531 73.7384 215.921C73.9027 212.475 70.782 209.357 67.1686 209.357Z" fill="#30C5CC"/>
<path d="M493.875 102.527H485.006V93.6658H479.422V102.527H470.552V108.107H479.422V116.968H485.006V108.107H493.875V102.527Z" fill="#30C5CC"/>
<path d="M449.529 41.9741C449.529 44.9279 447.065 47.3894 444.109 47.3894C441.153 47.3894 438.689 44.9279 438.689 41.9741C438.689 39.0203 441.153 36.5588 444.109 36.5588C447.065 36.5588 449.529 39.0203 449.529 41.9741Z" fill="#3D9CFF"/>
<path d="M342.442 138.301C334.722 138.301 328.481 132.065 328.481 124.517C328.481 116.804 334.722 110.732 342.442 110.732C350.161 110.732 356.238 116.968 356.238 124.517C356.403 132.065 350.161 138.301 342.442 138.301ZM342.442 117.789C338.828 117.789 335.872 120.742 335.872 124.353C335.872 127.963 338.828 130.917 342.442 130.917C346.055 130.917 349.012 127.963 349.012 124.353C349.176 120.742 346.055 117.789 342.442 117.789Z" fill="#FEBA40"/>
<path d="M416.188 46.5689C408.468 46.5689 402.227 40.3331 402.227 32.7845C402.227 25.0717 408.468 19 416.188 19C423.907 19 429.984 25.2358 429.984 32.7845C430.148 40.3331 423.907 46.5689 416.188 46.5689ZM416.188 26.0563C412.574 26.0563 409.618 29.0101 409.618 32.6204C409.618 36.2306 412.574 39.1844 416.188 39.1844C419.801 39.1844 422.757 36.2306 422.757 32.6204C422.757 29.0101 419.801 26.0563 416.188 26.0563Z" fill="#FEBA40"/>
</g>
<defs>
<clipPath id="clip0_55_209">
<rect width="565" height="469" fill="white"/>
</clipPath>
</defs>
</svg>
