<svg width="53" height="53" viewBox="0 0 53 53" fill="none" xmlns="http://www.w3.org/2000/svg">
<rect width="52.3749" height="52" transform="translate(0.387939 0.666504)" fill="#3F3B3B"/>
<path fill-rule="evenodd" clip-rule="evenodd" d="M46.0702 0.666504H7.08057C3.39019 0.666504 0.387939 3.64736 0.387939 7.31133V46.0218C0.387939 49.6856 3.39019 52.6665 7.08057 52.6665H46.0702C49.7606 52.6665 52.7628 49.6856 52.7628 46.0217V7.31133C52.7628 3.64736 49.7606 0.666504 46.0702 0.666504ZM49.6778 46.0216C49.6778 47.9967 48.0594 49.6034 46.0702 49.6034H7.0805C5.09118 49.6034 3.47277 47.9966 3.47277 46.0216V40.435L13.626 31.8579C13.9966 31.5449 14.5371 31.5419 14.9111 31.8503L21.2711 37.0938C21.8844 37.5992 22.7846 37.5578 23.3481 36.9977L38.46 21.9711C38.7332 21.6994 39.0516 21.673 39.2178 21.6814C39.3836 21.6899 39.6981 21.7486 39.9419 22.0467L49.6779 33.9488V46.0216H49.6778ZM42.3365 20.1155L49.6778 29.0902V7.31123C49.6778 5.33615 48.0595 3.72933 46.0702 3.72933H7.0805C5.09118 3.72933 3.47277 5.33615 3.47277 7.31123V36.4136L11.6269 29.5254C13.1419 28.2456 15.3519 28.2325 16.8821 29.4941L22.1595 33.8449L36.277 19.8069C37.093 18.9954 38.2232 18.5646 39.3759 18.6225C40.5294 18.6813 41.6085 19.2254 42.3365 20.1155Z" fill="#9DAFBD"/>
<path fill-rule="evenodd" clip-rule="evenodd" d="M9.4967 14.4925C9.4967 10.417 12.8362 7.1012 16.9413 7.1012C21.0464 7.1012 24.3859 10.4169 24.3859 14.4925C24.3859 18.5681 21.0462 21.8838 16.9413 21.8838C12.8363 21.8838 9.4967 18.5681 9.4967 14.4925ZM12.5844 14.4925C12.5844 16.8778 14.5389 18.8184 16.9414 18.8184C19.3439 18.8184 21.2984 16.8778 21.2984 14.4925C21.2984 12.1073 19.3439 10.1667 16.9414 10.1667C14.5389 10.1667 12.5844 12.1072 12.5844 14.4925Z" fill="#9DAFBD"/>
</svg>
