<svg width="135" height="27" viewBox="0 0 135 27" fill="none" xmlns="http://www.w3.org/2000/svg">
<path d="M36.2695 3.78125H41.5723C42.6595 3.78125 43.5938 3.94401 44.375 4.26953C45.1628 4.59505 45.7682 5.07682 46.1914 5.71484C46.6146 6.35286 46.8262 7.13737 46.8262 8.06836C46.8262 8.83008 46.696 9.48438 46.4355 10.0312C46.1816 10.5716 45.8203 11.0241 45.3516 11.3887C44.8893 11.7467 44.3457 12.0332 43.7207 12.248L42.793 12.7363H38.1836L38.1641 10.4512H41.5918C42.1061 10.4512 42.5326 10.36 42.8711 10.1777C43.2096 9.99544 43.4635 9.74154 43.6328 9.41602C43.8086 9.09049 43.8965 8.71289 43.8965 8.2832C43.8965 7.82747 43.8118 7.43359 43.6426 7.10156C43.4733 6.76953 43.2161 6.51562 42.8711 6.33984C42.526 6.16406 42.0931 6.07617 41.5723 6.07617H39.1992V18H36.2695V3.78125ZM44.2188 18L40.9766 11.6621L44.0723 11.6426L47.3535 17.8633V18H44.2188ZM53.7695 18.1953C52.9492 18.1953 52.2135 18.0651 51.5625 17.8047C50.9115 17.5378 50.3581 17.1699 49.9023 16.7012C49.4531 16.2324 49.1081 15.6888 48.8672 15.0703C48.6263 14.4453 48.5059 13.7812 48.5059 13.0781V12.6875C48.5059 11.8867 48.6198 11.1543 48.8477 10.4902C49.0755 9.82617 49.401 9.25 49.8242 8.76172C50.2539 8.27344 50.7747 7.89909 51.3867 7.63867C51.9987 7.37174 52.6888 7.23828 53.457 7.23828C54.2057 7.23828 54.8698 7.36198 55.4492 7.60938C56.0286 7.85677 56.5137 8.20833 56.9043 8.66406C57.3014 9.11979 57.6009 9.66667 57.8027 10.3047C58.0046 10.9362 58.1055 11.6393 58.1055 12.4141V13.5859H49.707V11.7109H55.3418V11.4961C55.3418 11.1055 55.2702 10.7572 55.127 10.4512C54.9902 10.1387 54.7819 9.89128 54.502 9.70898C54.222 9.52669 53.8639 9.43555 53.4277 9.43555C53.0566 9.43555 52.7376 9.51693 52.4707 9.67969C52.2038 9.84245 51.9857 10.0703 51.8164 10.3633C51.6536 10.6562 51.5299 11.0013 51.4453 11.3984C51.3672 11.7891 51.3281 12.2188 51.3281 12.6875V13.0781C51.3281 13.5013 51.3867 13.8919 51.5039 14.25C51.6276 14.6081 51.8001 14.9173 52.0215 15.1777C52.2493 15.4382 52.5228 15.64 52.8418 15.7832C53.1673 15.9264 53.5352 15.998 53.9453 15.998C54.4531 15.998 54.9251 15.9004 55.3613 15.7051C55.804 15.5033 56.1849 15.2005 56.5039 14.7969L57.8711 16.2812C57.6497 16.6003 57.347 16.9062 56.9629 17.1992C56.5853 17.4922 56.1296 17.7331 55.5957 17.9219C55.0618 18.1042 54.4531 18.1953 53.7695 18.1953ZM63.291 18H60.459V6.49609C60.459 5.69531 60.6152 5.02148 60.9277 4.47461C61.2467 3.92122 61.6927 3.50456 62.2656 3.22461C62.8451 2.93815 63.5319 2.79492 64.3262 2.79492C64.5866 2.79492 64.8372 2.81445 65.0781 2.85352C65.319 2.88607 65.5534 2.92839 65.7812 2.98047L65.752 5.09961C65.6283 5.06706 65.498 5.04427 65.3613 5.03125C65.2246 5.01823 65.0651 5.01172 64.8828 5.01172C64.5443 5.01172 64.2546 5.07031 64.0137 5.1875C63.7793 5.29818 63.6003 5.46419 63.4766 5.68555C63.3529 5.9069 63.291 6.17708 63.291 6.49609V18ZM65.4004 7.43359V9.42578H58.8867V7.43359H65.4004ZM73.125 15.4707V7.43359H75.9375V18H73.291L73.125 15.4707ZM73.4375 13.3027L74.2676 13.2832C74.2676 13.9863 74.1862 14.6406 74.0234 15.2461C73.8607 15.8451 73.6165 16.3659 73.291 16.8086C72.9655 17.2448 72.5553 17.5866 72.0605 17.834C71.5658 18.0749 70.9831 18.1953 70.3125 18.1953C69.7982 18.1953 69.3229 18.1237 68.8867 17.9805C68.457 17.8307 68.0859 17.5996 67.7734 17.2871C67.4674 16.9681 67.2266 16.5612 67.0508 16.0664C66.8815 15.5651 66.7969 14.9629 66.7969 14.2598V7.43359H69.6094V14.2793C69.6094 14.5918 69.6452 14.8555 69.7168 15.0703C69.7949 15.2852 69.9023 15.4609 70.0391 15.5977C70.1758 15.7344 70.3353 15.832 70.5176 15.8906C70.7064 15.9492 70.9147 15.9785 71.1426 15.9785C71.722 15.9785 72.1777 15.8613 72.5098 15.627C72.8483 15.3926 73.0859 15.0736 73.2227 14.6699C73.3659 14.2598 73.4375 13.804 73.4375 13.3027ZM78.0859 3H80.8984V15.5781L80.6152 18H78.0859V3ZM87.5879 12.6094V12.8145C87.5879 13.6022 87.5033 14.3249 87.334 14.9824C87.1712 15.64 86.9173 16.2096 86.5723 16.6914C86.2272 17.1667 85.7975 17.5378 85.2832 17.8047C84.7754 18.0651 84.1764 18.1953 83.4863 18.1953C82.8418 18.1953 82.2819 18.0651 81.8066 17.8047C81.3379 17.5443 80.944 17.1764 80.625 16.7012C80.306 16.2259 80.0488 15.6693 79.8535 15.0312C79.6582 14.3932 79.5117 13.6966 79.4141 12.9414V12.4922C79.5117 11.737 79.6582 11.0404 79.8535 10.4023C80.0488 9.76432 80.306 9.20768 80.625 8.73242C80.944 8.25716 81.3379 7.88932 81.8066 7.62891C82.2754 7.36849 82.8288 7.23828 83.4668 7.23828C84.1634 7.23828 84.7689 7.37174 85.2832 7.63867C85.804 7.89909 86.2337 8.27018 86.5723 8.75195C86.9173 9.22721 87.1712 9.79362 87.334 10.4512C87.5033 11.1022 87.5879 11.8216 87.5879 12.6094ZM84.7754 12.8145V12.6094C84.7754 12.1797 84.7428 11.776 84.6777 11.3984C84.6191 11.0143 84.515 10.679 84.3652 10.3926C84.2155 10.0996 84.0104 9.86849 83.75 9.69922C83.4961 9.52995 83.1673 9.44531 82.7637 9.44531C82.3796 9.44531 82.054 9.51042 81.7871 9.64062C81.5202 9.77083 81.2988 9.95312 81.123 10.1875C80.9538 10.4219 80.8268 10.7018 80.7422 11.0273C80.6576 11.3464 80.6055 11.6979 80.5859 12.082V13.3613C80.6055 13.8757 80.6901 14.3314 80.8398 14.7285C80.9961 15.1191 81.2305 15.4284 81.543 15.6562C81.862 15.8776 82.2754 15.9883 82.7832 15.9883C83.1803 15.9883 83.5091 15.9102 83.7695 15.7539C84.0299 15.5977 84.2318 15.3763 84.375 15.0898C84.5247 14.8034 84.6289 14.4681 84.6875 14.084C84.7461 13.6934 84.7754 13.2702 84.7754 12.8145ZM88.8867 12.8242V12.6191C88.8867 11.8444 88.9974 11.1315 89.2188 10.4805C89.4401 9.82292 89.7624 9.25326 90.1855 8.77148C90.6087 8.28971 91.1296 7.91536 91.748 7.64844C92.3665 7.375 93.0762 7.23828 93.877 7.23828C94.6777 7.23828 95.3906 7.375 96.0156 7.64844C96.6406 7.91536 97.1647 8.28971 97.5879 8.77148C98.0176 9.25326 98.3431 9.82292 98.5645 10.4805C98.7858 11.1315 98.8965 11.8444 98.8965 12.6191V12.8242C98.8965 13.5924 98.7858 14.3053 98.5645 14.9629C98.3431 15.6139 98.0176 16.1836 97.5879 16.6719C97.1647 17.1536 96.6439 17.528 96.0254 17.7949C95.4069 18.0618 94.6973 18.1953 93.8965 18.1953C93.0957 18.1953 92.3828 18.0618 91.7578 17.7949C91.1393 17.528 90.6152 17.1536 90.1855 16.6719C89.7624 16.1836 89.4401 15.6139 89.2188 14.9629C88.9974 14.3053 88.8867 13.5924 88.8867 12.8242ZM91.6992 12.6191V12.8242C91.6992 13.2669 91.7383 13.6803 91.8164 14.0645C91.8945 14.4486 92.0182 14.7871 92.1875 15.0801C92.3633 15.3665 92.5911 15.5911 92.8711 15.7539C93.151 15.9167 93.4928 15.998 93.8965 15.998C94.2871 15.998 94.6224 15.9167 94.9023 15.7539C95.1823 15.5911 95.4069 15.3665 95.5762 15.0801C95.7454 14.7871 95.8691 14.4486 95.9473 14.0645C96.0319 13.6803 96.0742 13.2669 96.0742 12.8242V12.6191C96.0742 12.1895 96.0319 11.7858 95.9473 11.4082C95.8691 11.0241 95.7422 10.6855 95.5664 10.3926C95.3971 10.0931 95.1725 9.85872 94.8926 9.68945C94.6126 9.52018 94.2741 9.43555 93.877 9.43555C93.4798 9.43555 93.1413 9.52018 92.8613 9.68945C92.5879 9.85872 92.3633 10.0931 92.1875 10.3926C92.0182 10.6855 91.8945 11.0241 91.8164 11.4082C91.7383 11.7858 91.6992 12.1895 91.6992 12.6191ZM100.176 12.8242V12.6191C100.176 11.8444 100.286 11.1315 100.508 10.4805C100.729 9.82292 101.051 9.25326 101.475 8.77148C101.898 8.28971 102.419 7.91536 103.037 7.64844C103.656 7.375 104.365 7.23828 105.166 7.23828C105.967 7.23828 106.68 7.375 107.305 7.64844C107.93 7.91536 108.454 8.28971 108.877 8.77148C109.307 9.25326 109.632 9.82292 109.854 10.4805C110.075 11.1315 110.186 11.8444 110.186 12.6191V12.8242C110.186 13.5924 110.075 14.3053 109.854 14.9629C109.632 15.6139 109.307 16.1836 108.877 16.6719C108.454 17.1536 107.933 17.528 107.314 17.7949C106.696 18.0618 105.986 18.1953 105.186 18.1953C104.385 18.1953 103.672 18.0618 103.047 17.7949C102.428 17.528 101.904 17.1536 101.475 16.6719C101.051 16.1836 100.729 15.6139 100.508 14.9629C100.286 14.3053 100.176 13.5924 100.176 12.8242ZM102.988 12.6191V12.8242C102.988 13.2669 103.027 13.6803 103.105 14.0645C103.184 14.4486 103.307 14.7871 103.477 15.0801C103.652 15.3665 103.88 15.5911 104.16 15.7539C104.44 15.9167 104.782 15.998 105.186 15.998C105.576 15.998 105.911 15.9167 106.191 15.7539C106.471 15.5911 106.696 15.3665 106.865 15.0801C107.035 14.7871 107.158 14.4486 107.236 14.0645C107.321 13.6803 107.363 13.2669 107.363 12.8242V12.6191C107.363 12.1895 107.321 11.7858 107.236 11.4082C107.158 11.0241 107.031 10.6855 106.855 10.3926C106.686 10.0931 106.462 9.85872 106.182 9.68945C105.902 9.52018 105.563 9.43555 105.166 9.43555C104.769 9.43555 104.43 9.52018 104.15 9.68945C103.877 9.85872 103.652 10.0931 103.477 10.3926C103.307 10.6855 103.184 11.0241 103.105 11.4082C103.027 11.7858 102.988 12.1895 102.988 12.6191ZM114.727 2.99023V18H111.914V2.99023H114.727ZM121.387 7.43359L116.797 12.668L114.336 15.1582L113.311 13.127L115.264 10.6465L118.008 7.43359H121.387ZM118.467 18L115.342 13.1172L117.285 11.418L121.709 18H118.467Z" fill="#4699C2"/>
<path fill-rule="evenodd" clip-rule="evenodd" d="M17.4028 13.1722C17.4028 11.2515 18.9627 9.69446 20.8834 9.69446C22.8041 9.69446 24.3639 11.2515 24.3639 13.1722C24.3639 15.093 22.8041 16.65 20.8834 16.65C18.9627 16.65 17.4028 15.093 17.4028 13.1722Z" fill="#026FC2"/>
<path fill-rule="evenodd" clip-rule="evenodd" d="M0 13.1722C0 11.2515 1.55983 9.69446 3.48056 9.69446C5.40128 9.69446 6.96111 11.2515 6.96111 13.1722C6.96111 15.093 5.40128 16.65 3.48056 16.65C1.55983 16.65 0 15.093 0 13.1722Z" fill="#026FC2"/>
<path fill-rule="evenodd" clip-rule="evenodd" d="M8.70142 21.8667C8.70142 19.946 10.2612 18.3889 12.182 18.3889C14.1027 18.3889 15.6625 19.946 15.6625 21.8667C15.6625 23.7874 14.1027 25.3445 12.182 25.3445C10.2612 25.3445 8.70142 23.7874 8.70142 21.8667Z" fill="#21567E"/>
<path fill-rule="evenodd" clip-rule="evenodd" d="M8.70142 4.47778C8.70142 2.55705 10.2612 1 12.182 1C14.1027 1 15.6625 2.55705 15.6625 4.47778C15.6625 6.3985 14.1027 7.95556 12.182 7.95556C10.2612 7.95556 8.70142 6.3985 8.70142 4.47778Z" fill="#21567E"/>
</svg>
