<?xml version="1.0" standalone="no"?>
<!DOCTYPE svg PUBLIC "-//W3C//DTD SVG 20010904//EN"
 "http://www.w3.org/TR/2001/REC-SVG-20010904/DTD/svg10.dtd">
<svg version="1.0" xmlns="http://www.w3.org/2000/svg"
 width="216.000000pt" height="233.000000pt" viewBox="0 0 216.000000 233.000000"
 preserveAspectRatio="xMidYMid meet">

<g transform="translate(0.000000,233.000000) scale(0.100000,-0.100000)"
fill="#000000" stroke="none">
<path d="M911 80 c0 -19 3 -29 6 -22 4 10 9 9 20 -5 15 -18 14 -16 -13 35
l-14 27 1 -35z"/>
<path d="M1288 103 c6 -2 18 -2 25 0 6 3 1 5 -13 5 -14 0 -19 -2 -12 -5z"/>
<path d="M1335 100 c-4 -6 1 -7 11 -3 14 5 16 3 10 -13 -5 -14 -4 -16 5 -7 12
12 5 33 -11 33 -5 0 -12 -4 -15 -10z"/>
<path d="M1485 99 c-11 -16 -1 -19 13 -3 7 8 8 14 3 14 -5 0 -13 -5 -16 -11z"/>
<path d="M1538 103 c7 -3 16 -2 19 1 4 3 -2 6 -13 5 -11 0 -14 -3 -6 -6z"/>
<path d="M1685 100 c-3 -6 1 -7 9 -4 18 7 21 14 7 14 -6 0 -13 -4 -16 -10z"/>
<path d="M600 70 c0 -16 4 -30 8 -30 5 0 7 13 4 30 -2 17 -6 30 -8 30 -2 0 -4
-13 -4 -30z"/>
<path d="M630 77 c0 -14 4 -28 8 -31 9 -5 8 41 -1 51 -4 3 -7 -5 -7 -20z"/>
<path d="M790 77 c0 -14 4 -28 8 -31 9 -5 8 41 -1 51 -4 3 -7 -5 -7 -20z"/>
<path d="M1437 86 c-4 -9 -1 -15 5 -13 6 1 13 -4 16 -12 3 -10 0 -12 -14 -7
-15 6 -17 5 -6 -5 21 -22 38 4 19 31 -12 17 -16 18 -20 6z"/>
<path d="M1587 93 c-11 -10 -8 -23 4 -20 6 1 14 -4 17 -12 3 -10 0 -12 -14 -7
-15 6 -17 5 -6 -5 21 -22 38 4 20 30 -8 12 -18 18 -21 14z"/>
<path d="M1636 85 c-3 -9 -2 -13 3 -10 5 3 13 0 17 -6 3 -6 0 -15 -7 -20 -9
-6 -10 -9 -2 -9 20 0 25 19 10 40 -13 18 -15 19 -21 5z"/>
<path d="M500 73 c0 -10 4 -14 8 -8 4 6 11 13 16 18 5 4 2 7 -7 7 -10 0 -17
-8 -17 -17z"/>
<path d="M715 79 c-4 -6 -5 -12 -2 -15 2 -3 7 2 10 11 7 17 1 20 -8 4z"/>
<path d="M823 74 c-8 -23 12 -40 31 -25 10 8 16 9 21 1 3 -5 12 -10 18 -10 8
0 7 3 -2 9 -8 5 -11 16 -7 26 5 15 4 16 -8 6 -10 -8 -16 -9 -21 -1 -9 15 -25
12 -32 -6z m29 -9 c0 -5 -5 -11 -11 -13 -6 -2 -11 4 -11 13 0 9 5 15 11 13 6
-2 11 -8 11 -13z"/>
<path d="M987 76 c-3 -8 2 -20 11 -28 15 -11 15 -11 5 3 -10 12 -10 18 -1 27
8 8 9 12 1 12 -6 0 -13 -6 -16 -14z"/>
<path d="M1035 80 c-3 -6 1 -7 9 -4 11 4 16 0 16 -11 0 -12 -5 -15 -17 -10
-15 5 -16 4 -5 -6 16 -17 37 3 29 25 -7 18 -23 21 -32 6z"/>
<path d="M1082 65 c0 -16 2 -22 5 -12 2 9 2 23 0 30 -3 6 -5 -1 -5 -18z"/>
<path d="M1112 83 c9 -2 19 -14 21 -26 4 -18 5 -17 6 6 1 22 -3 27 -21 26 -16
-1 -18 -3 -6 -6z"/>
<path d="M1705 79 c-4 -6 -5 -12 -2 -15 2 -3 7 2 10 11 7 17 1 20 -8 4z"/>
<path d="M465 50 c-3 -5 -1 -10 4 -10 6 0 11 5 11 10 0 6 -2 10 -4 10 -3 0 -8
-4 -11 -10z"/>
<path d="M560 50 c-9 -6 -10 -10 -3 -10 6 0 15 5 18 10 8 12 4 12 -15 0z"/>
<path d="M667 49 c7 -7 15 -10 18 -7 3 3 -2 9 -12 12 -14 6 -15 5 -6 -5z"/>
<path d="M1238 43 c6 -2 18 -2 25 0 6 3 1 5 -13 5 -14 0 -19 -2 -12 -5z"/>
<path d="M1338 43 c6 -2 18 -2 25 0 6 3 1 5 -13 5 -14 0 -19 -2 -12 -5z"/>
<path d="M1488 43 c7 -3 16 -2 19 1 4 3 -2 6 -13 5 -11 0 -14 -3 -6 -6z"/>
</g>
</svg>
